<svg xmlns="http://www.w3.org/2000/svg" width="112" height="128" viewBox="0 0 112 128">
  <g id="グループ_78" data-name="グループ 78" transform="translate(-668 -1131)">
    <g id="グループ_85" data-name="グループ 85">
      <rect id="長方形_52" data-name="長方形 52" width="112" height="128" transform="translate(668 1131)" fill="none"/>
      <g id="コーヒーブレイクアイコン" transform="translate(668 1148.876)">
        <path id="パス_5" data-name="パス 5" d="M111.794,71.623a15.076,15.076,0,0,0-5.156-9.336,14.537,14.537,0,0,0-9.341-3.34,15.276,15.276,0,0,0-4.615.719c-2.8-9.676-17.4-14.518-41.835-14.518-28.056,0-43.148,6.377-42.3,19.134A82.225,82.225,0,0,0,16.94,94.1a34.684,34.684,0,0,0-6.977,3.39,24.893,24.893,0,0,0-6.479,5.884A17.077,17.077,0,0,0,.12,111.252a12.146,12.146,0,0,0-.12,1.7,13.259,13.259,0,0,0,1.081,5.163,20.487,20.487,0,0,0,6.167,7.757c4.238,3.431,10.089,6.263,17.5,8.294a102.474,102.474,0,0,0,26.871,3.23c15.908-.009,28.373-2.766,37.164-7.012a32.4,32.4,0,0,0,10.4-7.521,17.751,17.751,0,0,0,2.968-4.629,13.093,13.093,0,0,0,1.094-5.156,11.421,11.421,0,0,0-.057-1.16,16.712,16.712,0,0,0-3.153-8.124A27.008,27.008,0,0,0,89.5,95.422a37.373,37.373,0,0,0-4.512-1.765c.261-.515.518-1.032.765-1.548A18.3,18.3,0,0,0,92.4,93.371a18.84,18.84,0,0,0,7.581-1.614,20.748,20.748,0,0,0,8.541-6.992A18.4,18.4,0,0,0,112,74.208,16.288,16.288,0,0,0,111.794,71.623ZM50.846,54.073c16.672,0,30.184,3.429,30.184,7.654s-13.513,7.652-30.184,7.652-30.181-3.426-30.181-7.652S34.178,54.073,50.846,54.073Zm38.488,50.01a17.084,17.084,0,0,1,4.473,4.157,9.107,9.107,0,0,1,1.763,4.418,4.111,4.111,0,0,1,.021.42,5.37,5.37,0,0,1-.478,2.144,12.96,12.96,0,0,1-3.962,4.756c-3.141,2.533-8.1,5.026-14.741,6.822a95.194,95.194,0,0,1-24.8,2.945c-15.081.009-26.51-2.673-33.864-6.277a24.677,24.677,0,0,1-7.925-5.689,10.132,10.132,0,0,1-1.7-2.637,5.637,5.637,0,0,1-.48-2.19,4.636,4.636,0,0,1,.045-.633A9.461,9.461,0,0,1,9.6,107.964a19.806,19.806,0,0,1,7.583-5.726,29.747,29.747,0,0,1,3.8-1.4,47.779,47.779,0,0,0,4.722,5.791,40.788,40.788,0,0,0,5.019,4.486c-1.661.973-2.618,2.065-2.618,3.221,0,4.049,11.419,7.334,25.506,7.334s25.506-3.284,25.506-7.334c0-1.829-2.342-3.5-6.19-4.781.992-.862,2.01-1.831,3.068-2.927a47.9,47.9,0,0,0,4.985-6.17A28.032,28.032,0,0,1,89.335,104.083Zm11.743-26.757a10.387,10.387,0,0,1-3.57,4.182A9.12,9.12,0,0,1,92.4,83.17a8.189,8.189,0,0,1-2.925-.574,87.273,87.273,0,0,0,2.582-10.167,7.558,7.558,0,0,1,2.324-2.4,5.493,5.493,0,0,1,2.92-.876,4.348,4.348,0,0,1,2.809.974,4.869,4.869,0,0,1,1.616,3.111,6.3,6.3,0,0,1,.075.975A7.524,7.524,0,0,1,101.078,77.326Z" transform="translate(0 -45.148)" fill="#fdc30a"/>
      </g>
    </g>
  </g>
</svg>
