<svg xmlns="http://www.w3.org/2000/svg" width="112" height="128" viewBox="0 0 112 128">
  <g id="グループ_86" data-name="グループ 86" transform="translate(-5944 -831)">
    <g id="グループ_81" data-name="グループ 81" transform="translate(5476 -377)">
      <rect id="長方形_50" data-name="長方形 50" width="112" height="128" transform="translate(468 1208)" fill="none"/>
      <g id="プライパンのフリーアイコン" transform="translate(468 1215.258)">
        <path id="パス_7" data-name="パス 7" d="M112.933,4.22l-2.012-1.957a7.98,7.98,0,0,0-11.283.149L76.4,26.281A47.389,47.389,0,1,0,89.85,39.375l23.235-23.869A7.981,7.981,0,0,0,112.933,4.22ZM72.576,87.39a30.5,30.5,0,0,1-52.354-20.9A28.79,28.79,0,1,0,71.931,44.2a.491.491,0,0,1,.062.059A30.5,30.5,0,0,1,72.576,87.39Zm31.907-70.442a4.224,4.224,0,1,1-.083-5.974A4.224,4.224,0,0,1,104.483,16.947Z" transform="translate(-3.347 -0.001)" fill="#fdc30a"/>
      </g>
    </g>
  </g>
</svg>
