<svg xmlns="http://www.w3.org/2000/svg" width="64" height="64" viewBox="0 0 64 64">
  <g id="グループ_75" data-name="グループ 75" transform="translate(-2848 58)">
    <rect id="長方形_59" data-name="長方形 59" width="64" height="64" transform="translate(2848 -58)" fill="none"/>
    <g id="フラワーアイコン" transform="translate(2852 -53.225)">
      <path id="パス_14" data-name="パス 14" d="M56,30.759A12.028,12.028,0,0,0,40.167,19.206a12.167,12.167,0,0,0-24.334,0,12.136,12.136,0,0,0-3.664-.617,12.132,12.132,0,0,0-3.8,23.667A12.138,12.138,0,0,0,28,56.542,12.139,12.139,0,0,0,47.629,42.256,12.115,12.115,0,0,0,56,30.759ZM28,43.216a6.332,6.332,0,1,1,6.336-6.331A6.335,6.335,0,0,1,28,43.216Z" transform="translate(0 -7.084)" fill="#fdc30a"/>
    </g>
  </g>
</svg>
