<svg xmlns="http://www.w3.org/2000/svg" width="638" height="322" viewBox="0 0 638 322">
  <g id="グループ_84" data-name="グループ 84" transform="translate(-5985 -769)">
    <g id="グループ_74" data-name="グループ 74" transform="translate(5461 703)">
      <g id="グループ_29" data-name="グループ 29" transform="translate(524 66)">
        <text id="Yuki_s" data-name="Yuki’s" transform="translate(317 110)" fill="#7a5102" font-size="96" font-family="SourceHanSerif-ExtraLight, Source Han Serif" font-weight="200" letter-spacing="0.1em"><tspan x="-155.472" y="0">Yuki’s</tspan></text>
        <g id="グループ_19" data-name="グループ 19" transform="translate(0 138.337)">
          <text id="Portfolio" transform="translate(319 146.663)" fill="#7a5102" font-size="128" font-family="SourceHanSerif-ExtraLight, Source Han Serif" font-weight="200" letter-spacing="0.1em"><tspan x="-318.912" y="0">Portfolio</tspan></text>
        </g>
      </g>
    </g>
    <g id="グループ_83" data-name="グループ 83" transform="translate(3569 924)">
      <rect id="長方形_60" data-name="長方形 60" width="64" height="64" transform="translate(2923)" fill="none"/>
      <path id="パス_13" data-name="パス 13" d="M52.083,23.962c-.738-.406-6.642,4.4-20.268,7.77-6.621,1.636-24.979,7.215-24.675,34.93L0,71.11l2.224,4.123c6.9-4.713,25.814-13.9,44.818-37.482,0,0-2.939,15.569-36.542,36.027C21.841,80,37.8,80,49.983,64.882S52.083,23.962,52.083,23.962Z" transform="translate(2927 -18.816)" fill="#568211"/>
    </g>
  </g>
</svg>
