<svg xmlns="http://www.w3.org/2000/svg" width="112" height="128" viewBox="0 0 112 128">
  <g id="グループ_79" data-name="グループ 79" transform="translate(-587 -1247)">
    <g id="グループ_88" data-name="グループ 88">
      <g id="グループ_87" data-name="グループ 87" transform="translate(587 1247)">
        <rect id="長方形_54" data-name="長方形 54" width="112" height="128" fill="none"/>
      </g>
      <g id="ノートのアイコン素材" transform="translate(587 1271.721)">
        <path id="パス_9" data-name="パス 9" d="M106.941,81.978a3.126,3.126,0,0,0-1.524-1.528,30.971,30.971,0,0,0-4.847-1.7,65.352,65.352,0,0,0-9.314-1.7,99.8,99.8,0,0,0-11.2-.612A94.191,94.191,0,0,0,65.509,77.5a58.42,58.42,0,0,0-5.964,1.244A34.565,34.565,0,0,0,56,79.9a34.308,34.308,0,0,0-3.548-1.155,65.21,65.21,0,0,0-9.311-1.7,99.91,99.91,0,0,0-11.2-.612A94.191,94.191,0,0,0,17.39,77.5a58.487,58.487,0,0,0-5.961,1.244,31.139,31.139,0,0,0-4.85,1.7,3.119,3.119,0,0,0-1.521,1.528C2.693,82.57,0,83.677,0,85.643V142.61a9.924,9.924,0,0,0,9.922,9.922H49.909v.516A1.944,1.944,0,0,0,51.851,155h8.3a1.944,1.944,0,0,0,1.941-1.948v-.516h39.987A9.924,9.924,0,0,0,112,142.61V85.643C112,83.677,109.307,82.57,106.941,81.978ZM52.89,141.263c-.147-.041-.287-.086-.437-.13a64.723,64.723,0,0,0-9.311-1.7,99.906,99.906,0,0,0-11.2-.612,94.626,94.626,0,0,0-14.55,1.066,58.531,58.531,0,0,0-5.961,1.244c-.15.044-.29.089-.437.13V85.386q.943-.328,2.058-.629a58.35,58.35,0,0,1,8.4-1.524,92.611,92.611,0,0,1,10.493-.571,88.622,88.622,0,0,1,13.576.988,51.7,51.7,0,0,1,5.315,1.108q1.118.3,2.058.629Zm48.115,0c-.147-.041-.284-.086-.434-.13a64.863,64.863,0,0,0-9.314-1.7,99.8,99.8,0,0,0-11.2-.612,94.626,94.626,0,0,0-14.55,1.066,58.42,58.42,0,0,0-5.964,1.244c-.147.044-.287.089-.434.13V85.386q.938-.328,2.058-.629a58.126,58.126,0,0,1,8.395-1.524,92.67,92.67,0,0,1,10.5-.571,88.691,88.691,0,0,1,13.576.988,51.882,51.882,0,0,1,5.315,1.108c.742.2,1.429.41,2.054.629Z" transform="translate(0 -76.438)" fill="#fdc30a"/>
      </g>
    </g>
  </g>
</svg>
