<svg xmlns="http://www.w3.org/2000/svg" width="112" height="128" viewBox="0 0 112 128">
  <g id="グループ_80" data-name="グループ 80" transform="translate(-575 -1114)">
    <g id="グループ_56" data-name="グループ 56" transform="translate(575 1114)">
      <g id="グループ_55" data-name="グループ 55">
        <rect id="長方形_53" data-name="長方形 53" width="112" height="128" fill="none"/>
      </g>
    </g>
    <g id="雪の結晶の無料アイコン6_1_" data-name="雪の結晶の無料アイコン6 (1)" transform="translate(575 1114)">
      <path id="パス_8" data-name="パス 8" d="M127.781,81.585c9.793-6.466,12.407-9.149,11.1-11.217a2.3,2.3,0,0,0-2.1-1.012c-2.473,0-7.327,2.365-16.176,7.893C113.789,73.191,105.776,68.558,97.855,64c7.632-4.39,15.81-9.121,22.749-13.251,8.849,5.528,13.7,7.893,16.176,7.893a2.312,2.312,0,0,0,2.106-1.014c1.3-2.064-1.312-4.746-11.105-11.215C145.236,35.7,145.943,33.6,145.013,32a1.89,1.89,0,0,0-1.793-.871c-2.415,0-8.417,2.632-19.377,8.5-.731-11.578-1.746-15.168-4.219-15.168a2.142,2.142,0,0,0-1.507.719c-1.165,1.252-2.166,4.368-1.64,18.461-7.015,3.881-15.03,8.449-22.915,12.966-.008-10.236-.047-18.793-.164-26.214,12.536-6.591,14.751-9.013,15.259-10.641a2.116,2.116,0,0,0-.125-1.661,2.224,2.224,0,0,0-2.162-1.083c-2.067,0-5.928,1.471-13.161,5.038C92.6,1.657,91.128,0,89.271,0s-3.329,1.657-3.939,22.046c-7.23-3.566-11.091-5.038-13.159-5.038a2.221,2.221,0,0,0-2.162,1.085,2.125,2.125,0,0,0-.127,1.659c.51,1.628,2.722,4.05,15.259,10.641-.127,7.918-.158,17.126-.164,26.217-9.14-5.235-16.409-9.365-22.915-12.962.526-14.1-.475-17.216-1.64-18.467a2.191,2.191,0,0,0-1.576-.723c-2.405,0-3.417,3.594-4.147,15.172-10.96-5.868-16.964-8.5-19.38-8.5A1.9,1.9,0,0,0,33.531,32c-.93,1.6-.223,3.7,17.232,14.415-9.793,6.468-12.407,9.151-11.105,11.217a2.313,2.313,0,0,0,2.106,1.012c2.473,0,7.327-2.365,16.174-7.893C64.747,54.807,72.763,59.442,80.69,64c-7.636,4.392-15.818,9.125-22.747,13.249-8.852-5.528-13.707-7.893-16.18-7.893a2.3,2.3,0,0,0-2.1,1.013c-1.3,2.064,1.31,4.747,11.1,11.215C33.306,92.3,32.6,94.4,33.531,96a1.9,1.9,0,0,0,1.791.867c2.415,0,8.42-2.63,19.377-8.5.733,11.578,1.744,15.172,4.147,15.172l.072,0a2.151,2.151,0,0,0,1.507-.718c1.165-1.254,2.166-4.37,1.64-18.463C69,80.523,76.827,76.061,84.98,71.39c.01,10.238.049,18.793.166,26.217C72.608,104.2,70.4,106.619,69.885,108.248a2.133,2.133,0,0,0,.127,1.661,2.224,2.224,0,0,0,2.162,1.083c2.067,0,5.928-1.472,13.159-5.038C85.942,126.343,87.416,128,89.271,128s3.331-1.657,3.939-22.046c7.232,3.566,11.093,5.038,13.161,5.038a2.221,2.221,0,0,0,2.162-1.085,2.11,2.11,0,0,0,.125-1.659c-.507-1.629-2.722-4.049-15.257-10.641.125-7.918.158-17.126.164-26.214,7.656,4.384,15.875,9.07,22.915,12.964-.526,14.091.475,17.21,1.64,18.463a2.151,2.151,0,0,0,1.507.719l.071,0c2.4,0,3.415-3.594,4.146-15.172,10.96,5.87,16.964,8.5,19.382,8.5A1.893,1.893,0,0,0,145.013,96C145.942,94.4,145.236,92.3,127.781,81.585Z" transform="translate(-33.272 0)" fill="#fdc30a"/>
    </g>
  </g>
</svg>
