<svg xmlns="http://www.w3.org/2000/svg" width="112" height="128" viewBox="0 0 112 128">
  <g id="グループ_77" data-name="グループ 77" transform="translate(-637 -998)">
    <rect id="長方形_49" data-name="長方形 49" width="112" height="128" transform="translate(637 998)" fill="none"/>
    <g id="グループ_50" data-name="グループ 50" transform="translate(637 1017.971)">
      <g id="飛行機アイコン" transform="translate(0 0)">
        <path id="パス_4" data-name="パス 4" d="M110.921,85.2a4.413,4.413,0,0,0-4.7-1.315L93.128,87.665a10.087,10.087,0,0,1-7.563-.548L70.5,79.736,83.86,62.047a3.293,3.293,0,0,0-3.218-5.468L54.138,68.2,59.3,70.73l-3.55,1.775-5.4-2.646L27.186,58.507C14.394,52.217,3.971,54.281.691,60.955S6.508,71.762,13.182,75.042L36.3,86.426,48.28,139.534a4.086,4.086,0,0,0,8.062-.4L63.77,99.94l16.093,7.924c10.3,4.754,21.275,4.3,24.555-2.376l7.127-15.446A4.408,4.408,0,0,0,110.921,85.2Z" transform="translate(0 -54.725)" fill="#fdc30a"/>
      </g>
    </g>
  </g>
</svg>
